<mxfile host="app.diagrams.net" agent="Mozilla/5.0 (Macintosh; Intel Mac OS X 10_15_7) AppleWebKit/537.36 (KHTML, like Gecko) Chrome/132.0.0.0 Safari/537.36" version="26.0.11">
  <diagram name="Page-1" id="c7558073-3199-34d8-9f00-42111426c3f3">
    <mxGraphModel dx="794" dy="1061" grid="1" gridSize="10" guides="1" tooltips="1" connect="1" arrows="1" fold="1" page="1" pageScale="1" pageWidth="826" pageHeight="1169" background="none" math="0" shadow="0">
      <root>
        <mxCell id="0" />
        <mxCell id="1" parent="0" />
        <mxCell id="3" value="Loader (Go)" style="whiteSpace=wrap;align=center;verticalAlign=middle;fontStyle=1;strokeWidth=3;fillColor=#FFFFCC" parent="1" vertex="1">
          <mxGeometry x="210" y="80" width="90" height="60" as="geometry" />
        </mxCell>
        <mxCell id="4" value="API (Go)" style="whiteSpace=wrap;align=center;verticalAlign=middle;fontStyle=1;strokeWidth=3;fillColor=#FFFFCC" parent="1" vertex="1">
          <mxGeometry x="210" y="210" width="90" height="60" as="geometry" />
        </mxCell>
        <mxCell id="36" value="" style="edgeStyle=none;noEdgeStyle=1;strokeColor=#990000;strokeWidth=2;entryX=0.5;entryY=0;entryDx=0;entryDy=0;" parent="1" source="3" target="HdUNvM5hjxClGUT3ly5O-100" edge="1">
          <mxGeometry width="100" height="100" relative="1" as="geometry">
            <mxPoint x="-176" y="214" as="sourcePoint" />
            <mxPoint x="150" y="240" as="targetPoint" />
            <Array as="points">
              <mxPoint x="105" y="110" />
            </Array>
          </mxGeometry>
        </mxCell>
        <mxCell id="37" value="" style="edgeStyle=none;noEdgeStyle=1;strokeColor=#990000;strokeWidth=2;entryX=1;entryY=0.5;entryDx=0;entryDy=0;" parent="1" source="4" target="HdUNvM5hjxClGUT3ly5O-100" edge="1">
          <mxGeometry width="100" height="100" relative="1" as="geometry">
            <mxPoint x="84" y="154" as="sourcePoint" />
            <mxPoint x="200" y="490" as="targetPoint" />
            <Array as="points" />
          </mxGeometry>
        </mxCell>
        <mxCell id="HdUNvM5hjxClGUT3ly5O-96" value="Reads CSV and&#xa;Writes to DB" style="text;spacingTop=-5;align=center" vertex="1" parent="1">
          <mxGeometry x="240" y="150" width="30" height="20" as="geometry" />
        </mxCell>
        <mxCell id="HdUNvM5hjxClGUT3ly5O-97" value="Reads Data from DB and&#xa;Serves HTTP Requests" style="text;spacingTop=-5;align=center" vertex="1" parent="1">
          <mxGeometry x="240" y="280" width="30" height="20" as="geometry" />
        </mxCell>
        <mxCell id="HdUNvM5hjxClGUT3ly5O-100" value="Postgres" style="whiteSpace=wrap;align=center;verticalAlign=middle;fontStyle=1;strokeWidth=3;fillColor=#ffe6cc;strokeColor=#d79b00;" vertex="1" parent="1">
          <mxGeometry x="60" y="210" width="90" height="60" as="geometry" />
        </mxCell>
        <mxCell id="HdUNvM5hjxClGUT3ly5O-101" value="Stores Application Data" style="text;spacingTop=-5;align=center" vertex="1" parent="1">
          <mxGeometry x="90" y="280" width="30" height="20" as="geometry" />
        </mxCell>
        <mxCell id="HdUNvM5hjxClGUT3ly5O-104" value="Client" style="whiteSpace=wrap;align=center;verticalAlign=middle;fontStyle=1;strokeWidth=3;fillColor=#dae8fc;strokeColor=#6c8ebf;" vertex="1" parent="1">
          <mxGeometry x="368" y="210" width="90" height="60" as="geometry" />
        </mxCell>
        <mxCell id="HdUNvM5hjxClGUT3ly5O-106" value="" style="edgeStyle=none;noEdgeStyle=1;strokeColor=#990000;strokeWidth=2;exitX=0;exitY=0.5;exitDx=0;exitDy=0;startArrow=classic;startFill=1;" edge="1" parent="1" source="HdUNvM5hjxClGUT3ly5O-104" target="4">
          <mxGeometry width="100" height="100" relative="1" as="geometry">
            <mxPoint x="420" y="380" as="sourcePoint" />
            <mxPoint x="330" y="239.5" as="targetPoint" />
            <Array as="points">
              <mxPoint x="350" y="239.5" />
            </Array>
          </mxGeometry>
        </mxCell>
        <mxCell id="HdUNvM5hjxClGUT3ly5O-108" value="User Makes Requests&#xa;(e.g., GET /files/collection)" style="text;spacingTop=-5;align=center" vertex="1" parent="1">
          <mxGeometry x="398" y="280" width="30" height="20" as="geometry" />
        </mxCell>
      </root>
    </mxGraphModel>
  </diagram>
</mxfile>
